<mxfile host="app.diagrams.net" modified="2021-12-01T13:52:37.685Z" agent="5.0 (Macintosh; Intel Mac OS X 10_15_7) AppleWebKit/605.1.15 (KHTML, like Gecko) Version/15.1 Safari/605.1.15" etag="HYHDNDnjUhWmLzxVMgTu" version="15.8.3" type="github">
  <diagram name="Page-1" id="13e1069c-82ec-6db2-03f1-153e76fe0fe0">
    <mxGraphModel dx="830" dy="673" grid="1" gridSize="10" guides="1" tooltips="1" connect="1" arrows="1" fold="1" page="1" pageScale="1" pageWidth="1100" pageHeight="850" background="none" math="0" shadow="0">
      <root>
        <mxCell id="0" />
        <mxCell id="1" parent="0" />
        <mxCell id="-N87Rrlo39uVzx941stH-1" value="Client" style="html=1;labelBackgroundColor=none;" vertex="1" parent="1">
          <mxGeometry x="120" y="70" width="150" height="70" as="geometry" />
        </mxCell>
        <mxCell id="-N87Rrlo39uVzx941stH-2" value="Server" style="html=1;labelBackgroundColor=none;" vertex="1" parent="1">
          <mxGeometry x="690" y="70" width="150" height="70" as="geometry" />
        </mxCell>
        <mxCell id="-N87Rrlo39uVzx941stH-3" value="" style="html=1;points=[];perimeter=orthogonalPerimeter;labelBackgroundColor=none;" vertex="1" parent="1">
          <mxGeometry x="190" y="220" width="10" height="200" as="geometry" />
        </mxCell>
        <mxCell id="-N87Rrlo39uVzx941stH-4" value="" style="html=1;points=[];perimeter=orthogonalPerimeter;labelBackgroundColor=none;" vertex="1" parent="1">
          <mxGeometry x="760" y="220" width="10" height="200" as="geometry" />
        </mxCell>
        <mxCell id="-N87Rrlo39uVzx941stH-5" value="" style="endArrow=none;endSize=12;dashed=1;html=1;rounded=0;exitX=0.5;exitY=1;exitDx=0;exitDy=0;entryX=0.5;entryY=0;entryDx=0;entryDy=0;entryPerimeter=0;endFill=0;" edge="1" parent="1" source="-N87Rrlo39uVzx941stH-1" target="-N87Rrlo39uVzx941stH-3">
          <mxGeometry width="160" relative="1" as="geometry">
            <mxPoint x="330" y="220" as="sourcePoint" />
            <mxPoint x="490" y="220" as="targetPoint" />
          </mxGeometry>
        </mxCell>
        <mxCell id="-N87Rrlo39uVzx941stH-7" value="" style="endArrow=none;endSize=12;dashed=1;html=1;rounded=0;exitX=0.5;exitY=1;exitDx=0;exitDy=0;entryX=0.5;entryY=0;entryDx=0;entryDy=0;entryPerimeter=0;endFill=0;" edge="1" parent="1">
          <mxGeometry width="160" relative="1" as="geometry">
            <mxPoint x="764.41" y="140" as="sourcePoint" />
            <mxPoint x="764.41" y="220" as="targetPoint" />
          </mxGeometry>
        </mxCell>
        <mxCell id="-N87Rrlo39uVzx941stH-8" value="Connect to Server" style="html=1;verticalAlign=bottom;endArrow=block;rounded=0;exitX=1;exitY=-0.005;exitDx=0;exitDy=0;exitPerimeter=0;" edge="1" parent="1" source="-N87Rrlo39uVzx941stH-3">
          <mxGeometry width="80" relative="1" as="geometry">
            <mxPoint x="370" y="220" as="sourcePoint" />
            <mxPoint x="760" y="219" as="targetPoint" />
          </mxGeometry>
        </mxCell>
        <mxCell id="-N87Rrlo39uVzx941stH-11" value="Player wins/looses" style="html=1;verticalAlign=bottom;startArrow=oval;startFill=1;endArrow=block;startSize=8;rounded=0;" edge="1" parent="1">
          <mxGeometry x="-0.6364" y="10" width="60" relative="1" as="geometry">
            <mxPoint x="80" y="330" as="sourcePoint" />
            <mxPoint x="190" y="330" as="targetPoint" />
            <mxPoint as="offset" />
          </mxGeometry>
        </mxCell>
        <mxCell id="-N87Rrlo39uVzx941stH-12" value="" style="html=1;points=[];perimeter=orthogonalPerimeter;labelBackgroundColor=none;" vertex="1" parent="1">
          <mxGeometry x="197" y="320" width="10" height="50" as="geometry" />
        </mxCell>
        <mxCell id="-N87Rrlo39uVzx941stH-13" value="" style="html=1;points=[];perimeter=orthogonalPerimeter;labelBackgroundColor=none;" vertex="1" parent="1">
          <mxGeometry x="754" y="320" width="10" height="50" as="geometry" />
        </mxCell>
        <mxCell id="-N87Rrlo39uVzx941stH-14" value="Send Highscore" style="html=1;verticalAlign=bottom;endArrow=block;rounded=0;exitX=0.686;exitY=-0.025;exitDx=0;exitDy=0;exitPerimeter=0;" edge="1" parent="1" source="-N87Rrlo39uVzx941stH-12">
          <mxGeometry width="80" relative="1" as="geometry">
            <mxPoint x="215" y="320" as="sourcePoint" />
            <mxPoint x="755" y="320" as="targetPoint" />
          </mxGeometry>
        </mxCell>
        <mxCell id="-N87Rrlo39uVzx941stH-15" value="Highscore send" style="html=1;verticalAlign=bottom;endArrow=open;dashed=1;endSize=8;rounded=0;entryX=0.893;entryY=0.996;entryDx=0;entryDy=0;entryPerimeter=0;" edge="1" parent="1" target="-N87Rrlo39uVzx941stH-12">
          <mxGeometry relative="1" as="geometry">
            <mxPoint x="754" y="369.31" as="sourcePoint" />
            <mxPoint x="674" y="369.31" as="targetPoint" />
          </mxGeometry>
        </mxCell>
        <mxCell id="-N87Rrlo39uVzx941stH-16" value="Close Connection" style="html=1;verticalAlign=bottom;endArrow=open;dashed=1;endSize=8;rounded=0;entryX=0.697;entryY=1.001;entryDx=0;entryDy=0;entryPerimeter=0;" edge="1" parent="1" target="-N87Rrlo39uVzx941stH-3">
          <mxGeometry relative="1" as="geometry">
            <mxPoint x="764.1379310344828" y="420" as="sourcePoint" />
            <mxPoint x="320" y="419.31" as="targetPoint" />
          </mxGeometry>
        </mxCell>
        <mxCell id="-N87Rrlo39uVzx941stH-18" value="" style="endArrow=none;endSize=12;dashed=1;html=1;rounded=0;exitX=0.5;exitY=1;exitDx=0;exitDy=0;entryX=0.5;entryY=0;entryDx=0;entryDy=0;entryPerimeter=0;endFill=0;" edge="1" parent="1">
          <mxGeometry width="160" relative="1" as="geometry">
            <mxPoint x="194.6600000000001" y="420" as="sourcePoint" />
            <mxPoint x="194.65999999999988" y="500" as="targetPoint" />
          </mxGeometry>
        </mxCell>
        <mxCell id="-N87Rrlo39uVzx941stH-19" value="" style="endArrow=none;endSize=12;dashed=1;html=1;rounded=0;exitX=0.5;exitY=1;exitDx=0;exitDy=0;entryX=0.5;entryY=0;entryDx=0;entryDy=0;entryPerimeter=0;endFill=0;" edge="1" parent="1">
          <mxGeometry width="160" relative="1" as="geometry">
            <mxPoint x="764.6600000000001" y="420" as="sourcePoint" />
            <mxPoint x="764.6599999999999" y="500" as="targetPoint" />
          </mxGeometry>
        </mxCell>
      </root>
    </mxGraphModel>
  </diagram>
</mxfile>
